<?xml version="1.0" encoding="UTF-8" standalone="no"?>
<!DOCTYPE svg PUBLIC "-//W3C//DTD SVG 1.1//EN"
 "http://www.w3.org/Graphics/SVG/1.1/DTD/svg11.dtd">
<!-- Generated by graphviz version 2.44.1 (0)
 -->
<!-- Pages: 1 -->
<svg width="1291pt" height="764pt"
 viewBox="0.00 0.00 1290.50 764.00" xmlns="http://www.w3.org/2000/svg" xmlns:xlink="http://www.w3.org/1999/xlink">
<g id="graph0" class="graph" transform="scale(1 1) rotate(0) translate(4 760)">
<polygon fill="white" stroke="transparent" points="-4,4 -4,-760 1286.5,-760 1286.5,4 -4,4"/>
<!-- [root] aws_autoscaling_group.default -->
<g id="node1" class="node">
<title>[root] aws_autoscaling_group.default</title>
<polygon fill="none" stroke="black" points="790.5,-468 604.5,-468 604.5,-432 790.5,-432 790.5,-468"/>
<text text-anchor="middle" x="697.5" y="-446.3" font-family="Times,serif" font-size="14.00">aws_autoscaling_group.default</text>
</g>
<!-- [root] aws_elb.default -->
<g id="node9" class="node">
<title>[root] aws_elb.default</title>
<polygon fill="none" stroke="black" points="630.5,-396 528.5,-396 528.5,-360 630.5,-360 630.5,-396"/>
<text text-anchor="middle" x="579.5" y="-374.3" font-family="Times,serif" font-size="14.00">aws_elb.default</text>
</g>
<!-- [root] aws_autoscaling_group.default&#45;&gt;[root] aws_elb.default -->
<g id="edge1" class="edge">
<title>[root] aws_autoscaling_group.default&#45;&gt;[root] aws_elb.default</title>
<path fill="none" stroke="black" d="M668.63,-431.88C653.21,-422.72 634.02,-411.34 617.4,-401.48"/>
<polygon fill="black" stroke="black" points="618.86,-398.28 608.48,-396.19 615.29,-404.3 618.86,-398.28"/>
</g>
<!-- [root] aws_launch_configuration.default -->
<g id="node12" class="node">
<title>[root] aws_launch_configuration.default</title>
<polygon fill="none" stroke="black" points="1140.5,-396 940.5,-396 940.5,-360 1140.5,-360 1140.5,-396"/>
<text text-anchor="middle" x="1040.5" y="-374.3" font-family="Times,serif" font-size="14.00">aws_launch_configuration.default</text>
</g>
<!-- [root] aws_autoscaling_group.default&#45;&gt;[root] aws_launch_configuration.default -->
<g id="edge2" class="edge">
<title>[root] aws_autoscaling_group.default&#45;&gt;[root] aws_launch_configuration.default</title>
<path fill="none" stroke="black" d="M780.97,-431.97C831.17,-421.72 895.19,-408.66 947.08,-398.07"/>
<polygon fill="black" stroke="black" points="947.86,-401.48 956.95,-396.05 946.46,-394.62 947.86,-401.48"/>
</g>
<!-- [root] aws_subnet.int1 -->
<g id="node25" class="node">
<title>[root] aws_subnet.int1</title>
<polygon fill="none" stroke="black" points="510.5,-396 406.5,-396 406.5,-360 510.5,-360 510.5,-396"/>
<text text-anchor="middle" x="458.5" y="-374.3" font-family="Times,serif" font-size="14.00">aws_subnet.int1</text>
</g>
<!-- [root] aws_autoscaling_group.default&#45;&gt;[root] aws_subnet.int1 -->
<g id="edge3" class="edge">
<title>[root] aws_autoscaling_group.default&#45;&gt;[root] aws_subnet.int1</title>
<path fill="none" stroke="black" d="M639.34,-431.97C603.47,-421.46 557.49,-407.99 520.86,-397.27"/>
<polygon fill="black" stroke="black" points="521.38,-393.77 510.8,-394.32 519.41,-400.49 521.38,-393.77"/>
</g>
<!-- [root] aws_subnet.int2 -->
<g id="node26" class="node">
<title>[root] aws_subnet.int2</title>
<polygon fill="none" stroke="black" points="752.5,-396 648.5,-396 648.5,-360 752.5,-360 752.5,-396"/>
<text text-anchor="middle" x="700.5" y="-374.3" font-family="Times,serif" font-size="14.00">aws_subnet.int2</text>
</g>
<!-- [root] aws_autoscaling_group.default&#45;&gt;[root] aws_subnet.int2 -->
<g id="edge4" class="edge">
<title>[root] aws_autoscaling_group.default&#45;&gt;[root] aws_subnet.int2</title>
<path fill="none" stroke="black" d="M698.24,-431.7C698.57,-423.98 698.97,-414.71 699.34,-406.11"/>
<polygon fill="black" stroke="black" points="702.84,-406.25 699.77,-396.1 695.84,-405.95 702.84,-406.25"/>
</g>
<!-- [root] aws_autoscaling_policy.step&#45;down -->
<g id="node2" class="node">
<title>[root] aws_autoscaling_policy.step&#45;down</title>
<polygon fill="none" stroke="black" points="584.5,-540 378.5,-540 378.5,-504 584.5,-504 584.5,-540"/>
<text text-anchor="middle" x="481.5" y="-518.3" font-family="Times,serif" font-size="14.00">aws_autoscaling_policy.step&#45;down</text>
</g>
<!-- [root] aws_autoscaling_policy.step&#45;down&#45;&gt;[root] aws_autoscaling_group.default -->
<g id="edge5" class="edge">
<title>[root] aws_autoscaling_policy.step&#45;down&#45;&gt;[root] aws_autoscaling_group.default</title>
<path fill="none" stroke="black" d="M534.06,-503.97C564.51,-494.1 603.01,-481.62 635,-471.25"/>
<polygon fill="black" stroke="black" points="636.27,-474.52 644.7,-468.11 634.11,-467.86 636.27,-474.52"/>
</g>
<!-- [root] aws_autoscaling_policy.step&#45;up -->
<g id="node3" class="node">
<title>[root] aws_autoscaling_policy.step&#45;up</title>
<polygon fill="none" stroke="black" points="792,-540 603,-540 603,-504 792,-504 792,-540"/>
<text text-anchor="middle" x="697.5" y="-518.3" font-family="Times,serif" font-size="14.00">aws_autoscaling_policy.step&#45;up</text>
</g>
<!-- [root] aws_autoscaling_policy.step&#45;up&#45;&gt;[root] aws_autoscaling_group.default -->
<g id="edge6" class="edge">
<title>[root] aws_autoscaling_policy.step&#45;up&#45;&gt;[root] aws_autoscaling_group.default</title>
<path fill="none" stroke="black" d="M697.5,-503.7C697.5,-495.98 697.5,-486.71 697.5,-478.11"/>
<polygon fill="black" stroke="black" points="701,-478.1 697.5,-468.1 694,-478.1 701,-478.1"/>
</g>
<!-- [root] aws_autoscaling_schedule.default -->
<g id="node4" class="node">
<title>[root] aws_autoscaling_schedule.default</title>
<polygon fill="none" stroke="black" points="1094,-612 893,-612 893,-576 1094,-576 1094,-612"/>
<text text-anchor="middle" x="993.5" y="-590.3" font-family="Times,serif" font-size="14.00">aws_autoscaling_schedule.default</text>
</g>
<!-- [root] aws_autoscaling_schedule.default&#45;&gt;[root] aws_autoscaling_group.default -->
<g id="edge7" class="edge">
<title>[root] aws_autoscaling_schedule.default&#45;&gt;[root] aws_autoscaling_group.default</title>
<path fill="none" stroke="black" d="M924.5,-575.92C896.93,-567.43 865.6,-555.59 839.5,-540 819.25,-527.9 819.83,-517.52 800.5,-504 783.52,-492.12 763.52,-481.22 745.69,-472.43"/>
<polygon fill="black" stroke="black" points="747.11,-469.23 736.58,-468.04 744.07,-475.54 747.11,-469.23"/>
</g>
<!-- [root] aws_cloudwatch_metric_alarm.cool -->
<g id="node5" class="node">
<title>[root] aws_cloudwatch_metric_alarm.cool</title>
<polygon fill="none" stroke="black" points="609,-612 394,-612 394,-576 609,-576 609,-612"/>
<text text-anchor="middle" x="501.5" y="-590.3" font-family="Times,serif" font-size="14.00">aws_cloudwatch_metric_alarm.cool</text>
</g>
<!-- [root] aws_cloudwatch_metric_alarm.cool&#45;&gt;[root] aws_autoscaling_policy.step&#45;down -->
<g id="edge8" class="edge">
<title>[root] aws_cloudwatch_metric_alarm.cool&#45;&gt;[root] aws_autoscaling_policy.step&#45;down</title>
<path fill="none" stroke="black" d="M496.56,-575.7C494.33,-567.9 491.65,-558.51 489.17,-549.83"/>
<polygon fill="black" stroke="black" points="492.5,-548.76 486.39,-540.1 485.77,-550.68 492.5,-548.76"/>
</g>
<!-- [root] aws_cloudwatch_metric_alarm.hot -->
<g id="node6" class="node">
<title>[root] aws_cloudwatch_metric_alarm.hot</title>
<polygon fill="none" stroke="black" points="875,-612 666,-612 666,-576 875,-576 875,-612"/>
<text text-anchor="middle" x="770.5" y="-590.3" font-family="Times,serif" font-size="14.00">aws_cloudwatch_metric_alarm.hot</text>
</g>
<!-- [root] aws_cloudwatch_metric_alarm.hot&#45;&gt;[root] aws_autoscaling_policy.step&#45;up -->
<g id="edge9" class="edge">
<title>[root] aws_cloudwatch_metric_alarm.hot&#45;&gt;[root] aws_autoscaling_policy.step&#45;up</title>
<path fill="none" stroke="black" d="M752.46,-575.7C743.44,-567.05 732.38,-556.45 722.56,-547.03"/>
<polygon fill="black" stroke="black" points="724.98,-544.5 715.34,-540.1 720.13,-549.55 724.98,-544.5"/>
</g>
<!-- [root] aws_eip.nat1 -->
<g id="node7" class="node">
<title>[root] aws_eip.nat1</title>
<polygon fill="none" stroke="black" points="445.5,-180 357.5,-180 357.5,-144 445.5,-144 445.5,-180"/>
<text text-anchor="middle" x="401.5" y="-158.3" font-family="Times,serif" font-size="14.00">aws_eip.nat1</text>
</g>
<!-- [root] provider.aws -->
<g id="node28" class="node">
<title>[root] provider.aws</title>
<polygon fill="none" stroke="black" points="797.5,-108 718.4,-90 797.5,-72 876.6,-90 797.5,-108"/>
<text text-anchor="middle" x="797.5" y="-86.3" font-family="Times,serif" font-size="14.00">provider.aws</text>
</g>
<!-- [root] aws_eip.nat1&#45;&gt;[root] provider.aws -->
<g id="edge10" class="edge">
<title>[root] aws_eip.nat1&#45;&gt;[root] provider.aws</title>
<path fill="none" stroke="black" d="M445.77,-153.17C519.37,-140.17 666.53,-114.15 745.15,-100.25"/>
<polygon fill="black" stroke="black" points="746.07,-103.65 755.31,-98.46 744.85,-96.75 746.07,-103.65"/>
</g>
<!-- [root] aws_eip.nat2 -->
<g id="node8" class="node">
<title>[root] aws_eip.nat2</title>
<polygon fill="none" stroke="black" points="913.5,-252 825.5,-252 825.5,-216 913.5,-216 913.5,-252"/>
<text text-anchor="middle" x="869.5" y="-230.3" font-family="Times,serif" font-size="14.00">aws_eip.nat2</text>
</g>
<!-- [root] aws_eip.nat2&#45;&gt;[root] provider.aws -->
<g id="edge11" class="edge">
<title>[root] aws_eip.nat2&#45;&gt;[root] provider.aws</title>
<path fill="none" stroke="black" d="M860.82,-215.87C848.11,-190.82 824.41,-144.06 809.88,-115.42"/>
<polygon fill="black" stroke="black" points="812.98,-113.79 805.34,-106.45 806.74,-116.95 812.98,-113.79"/>
</g>
<!-- [root] aws_security_group.elb -->
<g id="node22" class="node">
<title>[root] aws_security_group.elb</title>
<polygon fill="none" stroke="black" points="807,-252 660,-252 660,-216 807,-216 807,-252"/>
<text text-anchor="middle" x="733.5" y="-230.3" font-family="Times,serif" font-size="14.00">aws_security_group.elb</text>
</g>
<!-- [root] aws_elb.default&#45;&gt;[root] aws_security_group.elb -->
<g id="edge12" class="edge">
<title>[root] aws_elb.default&#45;&gt;[root] aws_security_group.elb</title>
<path fill="none" stroke="black" d="M584.23,-359.9C590.4,-340.33 602.92,-308.37 623.5,-288 636.91,-274.72 654.29,-264.27 671.27,-256.29"/>
<polygon fill="black" stroke="black" points="672.93,-259.38 680.63,-252.1 670.07,-252.99 672.93,-259.38"/>
</g>
<!-- [root] aws_subnet.ext1 -->
<g id="node23" class="node">
<title>[root] aws_subnet.ext1</title>
<polygon fill="none" stroke="black" points="576,-324 469,-324 469,-288 576,-288 576,-324"/>
<text text-anchor="middle" x="522.5" y="-302.3" font-family="Times,serif" font-size="14.00">aws_subnet.ext1</text>
</g>
<!-- [root] aws_elb.default&#45;&gt;[root] aws_subnet.ext1 -->
<g id="edge13" class="edge">
<title>[root] aws_elb.default&#45;&gt;[root] aws_subnet.ext1</title>
<path fill="none" stroke="black" d="M565.41,-359.7C558.58,-351.3 550.24,-341.07 542.74,-331.86"/>
<polygon fill="black" stroke="black" points="545.46,-329.65 536.43,-324.1 540.03,-334.07 545.46,-329.65"/>
</g>
<!-- [root] aws_subnet.ext2 -->
<g id="node24" class="node">
<title>[root] aws_subnet.ext2</title>
<polygon fill="none" stroke="black" points="740,-324 633,-324 633,-288 740,-288 740,-324"/>
<text text-anchor="middle" x="686.5" y="-302.3" font-family="Times,serif" font-size="14.00">aws_subnet.ext2</text>
</g>
<!-- [root] aws_elb.default&#45;&gt;[root] aws_subnet.ext2 -->
<g id="edge14" class="edge">
<title>[root] aws_elb.default&#45;&gt;[root] aws_subnet.ext2</title>
<path fill="none" stroke="black" d="M605.68,-359.88C619.54,-350.81 636.74,-339.55 651.71,-329.76"/>
<polygon fill="black" stroke="black" points="653.77,-332.59 660.22,-324.19 649.94,-326.74 653.77,-332.59"/>
</g>
<!-- [root] aws_internet_gateway.default -->
<g id="node10" class="node">
<title>[root] aws_internet_gateway.default</title>
<polygon fill="none" stroke="black" points="451,-324 272,-324 272,-288 451,-288 451,-324"/>
<text text-anchor="middle" x="361.5" y="-302.3" font-family="Times,serif" font-size="14.00">aws_internet_gateway.default</text>
</g>
<!-- [root] aws_vpc.default -->
<g id="node27" class="node">
<title>[root] aws_vpc.default</title>
<polygon fill="none" stroke="black" points="684,-180 579,-180 579,-144 684,-144 684,-180"/>
<text text-anchor="middle" x="631.5" y="-158.3" font-family="Times,serif" font-size="14.00">aws_vpc.default</text>
</g>
<!-- [root] aws_internet_gateway.default&#45;&gt;[root] aws_vpc.default -->
<g id="edge15" class="edge">
<title>[root] aws_internet_gateway.default&#45;&gt;[root] aws_vpc.default</title>
<path fill="none" stroke="black" d="M388.26,-287.98C418.04,-269.32 467.87,-239 512.5,-216 534.57,-204.63 559.59,-193.27 580.97,-184"/>
<polygon fill="black" stroke="black" points="582.4,-187.19 590.2,-180.02 579.63,-180.76 582.4,-187.19"/>
</g>
<!-- [root] aws_key_pair.default -->
<g id="node11" class="node">
<title>[root] aws_key_pair.default</title>
<polygon fill="none" stroke="black" points="1282.5,-612 1150.5,-612 1150.5,-576 1282.5,-576 1282.5,-612"/>
<text text-anchor="middle" x="1216.5" y="-590.3" font-family="Times,serif" font-size="14.00">aws_key_pair.default</text>
</g>
<!-- [root] aws_key_pair.default&#45;&gt;[root] provider.aws -->
<g id="edge16" class="edge">
<title>[root] aws_key_pair.default&#45;&gt;[root] provider.aws</title>
<path fill="none" stroke="black" d="M1228.52,-575.99C1245.51,-550.23 1274.5,-499.2 1274.5,-451 1274.5,-451 1274.5,-451 1274.5,-233 1274.5,-148.03 992.97,-109.81 862.48,-96.65"/>
<polygon fill="black" stroke="black" points="862.51,-93.14 852.22,-95.64 861.83,-100.11 862.51,-93.14"/>
</g>
<!-- [root] var.key_name -->
<g id="node31" class="node">
<title>[root] var.key_name</title>
<polygon fill="none" stroke="black" points="1237,-324 1150,-324 1150,-288 1243,-288 1243,-318 1237,-324"/>
<polyline fill="none" stroke="black" points="1237,-324 1237,-318 "/>
<polyline fill="none" stroke="black" points="1243,-318 1237,-318 "/>
<text text-anchor="middle" x="1196.5" y="-302.3" font-family="Times,serif" font-size="14.00">var.key_name</text>
</g>
<!-- [root] aws_key_pair.default&#45;&gt;[root] var.key_name -->
<g id="edge17" class="edge">
<title>[root] aws_key_pair.default&#45;&gt;[root] var.key_name</title>
<path fill="none" stroke="black" d="M1217.01,-575.93C1217.43,-558 1217.77,-529 1216.5,-504 1213.42,-443.22 1205.04,-372.3 1200.16,-334.32"/>
<polygon fill="black" stroke="black" points="1203.59,-333.55 1198.82,-324.08 1196.64,-334.45 1203.59,-333.55"/>
</g>
<!-- [root] var.public_key_path -->
<g id="node32" class="node">
<title>[root] var.public_key_path</title>
<polygon fill="none" stroke="black" points="1202,-540 1081,-540 1081,-504 1208,-504 1208,-534 1202,-540"/>
<polyline fill="none" stroke="black" points="1202,-540 1202,-534 "/>
<polyline fill="none" stroke="black" points="1208,-534 1202,-534 "/>
<text text-anchor="middle" x="1144.5" y="-518.3" font-family="Times,serif" font-size="14.00">var.public_key_path</text>
</g>
<!-- [root] aws_key_pair.default&#45;&gt;[root] var.public_key_path -->
<g id="edge18" class="edge">
<title>[root] aws_key_pair.default&#45;&gt;[root] var.public_key_path</title>
<path fill="none" stroke="black" d="M1198.7,-575.7C1189.9,-567.14 1179.12,-556.66 1169.5,-547.3"/>
<polygon fill="black" stroke="black" points="1171.7,-544.57 1162.09,-540.1 1166.82,-549.58 1171.7,-544.57"/>
</g>
<!-- [root] aws_security_group.ec2 -->
<g id="node21" class="node">
<title>[root] aws_security_group.ec2</title>
<polygon fill="none" stroke="black" points="1127,-324 978,-324 978,-288 1127,-288 1127,-324"/>
<text text-anchor="middle" x="1052.5" y="-302.3" font-family="Times,serif" font-size="14.00">aws_security_group.ec2</text>
</g>
<!-- [root] aws_launch_configuration.default&#45;&gt;[root] aws_security_group.ec2 -->
<g id="edge19" class="edge">
<title>[root] aws_launch_configuration.default&#45;&gt;[root] aws_security_group.ec2</title>
<path fill="none" stroke="black" d="M1043.47,-359.7C1044.79,-351.98 1046.38,-342.71 1047.85,-334.11"/>
<polygon fill="black" stroke="black" points="1051.33,-334.55 1049.57,-324.1 1044.43,-333.37 1051.33,-334.55"/>
</g>
<!-- [root] var.aws_amis -->
<g id="node29" class="node">
<title>[root] var.aws_amis</title>
<polygon fill="none" stroke="black" points="954,-324 869,-324 869,-288 960,-288 960,-318 954,-324"/>
<polyline fill="none" stroke="black" points="954,-324 954,-318 "/>
<polyline fill="none" stroke="black" points="960,-318 954,-318 "/>
<text text-anchor="middle" x="914.5" y="-302.3" font-family="Times,serif" font-size="14.00">var.aws_amis</text>
</g>
<!-- [root] aws_launch_configuration.default&#45;&gt;[root] var.aws_amis -->
<g id="edge20" class="edge">
<title>[root] aws_launch_configuration.default&#45;&gt;[root] var.aws_amis</title>
<path fill="none" stroke="black" d="M1009.68,-359.88C993.05,-350.64 972.34,-339.13 954.48,-329.21"/>
<polygon fill="black" stroke="black" points="955.88,-325.99 945.44,-324.19 952.48,-332.11 955.88,-325.99"/>
</g>
<!-- [root] aws_launch_configuration.default&#45;&gt;[root] var.key_name -->
<g id="edge21" class="edge">
<title>[root] aws_launch_configuration.default&#45;&gt;[root] var.key_name</title>
<path fill="none" stroke="black" d="M1078.66,-359.88C1099.89,-350.35 1126.51,-338.41 1149.07,-328.28"/>
<polygon fill="black" stroke="black" points="1150.77,-331.36 1158.46,-324.07 1147.91,-324.97 1150.77,-331.36"/>
</g>
<!-- [root] aws_nat_gateway.nat1 -->
<g id="node13" class="node">
<title>[root] aws_nat_gateway.nat1</title>
<polygon fill="none" stroke="black" points="343,-396 204,-396 204,-360 343,-360 343,-396"/>
<text text-anchor="middle" x="273.5" y="-374.3" font-family="Times,serif" font-size="14.00">aws_nat_gateway.nat1</text>
</g>
<!-- [root] aws_nat_gateway.nat1&#45;&gt;[root] aws_eip.nat1 -->
<g id="edge22" class="edge">
<title>[root] aws_nat_gateway.nat1&#45;&gt;[root] aws_eip.nat1</title>
<path fill="none" stroke="black" d="M266.23,-359.81C259.54,-341.29 252.11,-311.32 262.5,-288 282.69,-242.69 328.32,-206.93 361.81,-185.46"/>
<polygon fill="black" stroke="black" points="363.85,-188.32 370.48,-180.05 360.14,-182.38 363.85,-188.32"/>
</g>
<!-- [root] aws_nat_gateway.nat1&#45;&gt;[root] aws_internet_gateway.default -->
<g id="edge23" class="edge">
<title>[root] aws_nat_gateway.nat1&#45;&gt;[root] aws_internet_gateway.default</title>
<path fill="none" stroke="black" d="M295.25,-359.7C306.34,-350.88 319.97,-340.03 331.99,-330.47"/>
<polygon fill="black" stroke="black" points="334.35,-333.07 340,-324.1 329.99,-327.59 334.35,-333.07"/>
</g>
<!-- [root] aws_nat_gateway.nat1&#45;&gt;[root] aws_subnet.ext1 -->
<g id="edge24" class="edge">
<title>[root] aws_nat_gateway.nat1&#45;&gt;[root] aws_subnet.ext1</title>
<path fill="none" stroke="black" d="M334.09,-359.97C371.89,-349.34 420.46,-335.69 458.82,-324.9"/>
<polygon fill="black" stroke="black" points="460.17,-328.16 468.85,-322.08 458.27,-321.42 460.17,-328.16"/>
</g>
<!-- [root] aws_nat_gateway.nat2 -->
<g id="node14" class="node">
<title>[root] aws_nat_gateway.nat2</title>
<polygon fill="none" stroke="black" points="910,-396 771,-396 771,-360 910,-360 910,-396"/>
<text text-anchor="middle" x="840.5" y="-374.3" font-family="Times,serif" font-size="14.00">aws_nat_gateway.nat2</text>
</g>
<!-- [root] aws_nat_gateway.nat2&#45;&gt;[root] aws_eip.nat2 -->
<g id="edge25" class="edge">
<title>[root] aws_nat_gateway.nat2&#45;&gt;[root] aws_eip.nat2</title>
<path fill="none" stroke="black" d="M844,-359.87C848.96,-335.56 858.1,-290.82 863.98,-262.01"/>
<polygon fill="black" stroke="black" points="867.42,-262.69 865.99,-252.19 860.56,-261.29 867.42,-262.69"/>
</g>
<!-- [root] aws_nat_gateway.nat2&#45;&gt;[root] aws_internet_gateway.default -->
<g id="edge26" class="edge">
<title>[root] aws_nat_gateway.nat2&#45;&gt;[root] aws_internet_gateway.default</title>
<path fill="none" stroke="black" d="M770.78,-361.63C767.65,-361.05 764.54,-360.51 761.5,-360 631.43,-338.3 595.01,-343.29 461.41,-324.23"/>
<polygon fill="black" stroke="black" points="461.59,-320.72 451.19,-322.76 460.59,-327.65 461.59,-320.72"/>
</g>
<!-- [root] aws_nat_gateway.nat2&#45;&gt;[root] aws_subnet.ext2 -->
<g id="edge27" class="edge">
<title>[root] aws_nat_gateway.nat2&#45;&gt;[root] aws_subnet.ext2</title>
<path fill="none" stroke="black" d="M802.83,-359.88C781.87,-350.35 755.6,-338.41 733.32,-328.28"/>
<polygon fill="black" stroke="black" points="734.6,-325.02 724.05,-324.07 731.71,-331.39 734.6,-325.02"/>
</g>
<!-- [root] aws_route.default -->
<g id="node15" class="node">
<title>[root] aws_route.default</title>
<polygon fill="none" stroke="black" points="113,-612 0,-612 0,-576 113,-576 113,-612"/>
<text text-anchor="middle" x="56.5" y="-590.3" font-family="Times,serif" font-size="14.00">aws_route.default</text>
</g>
<!-- [root] aws_route.default&#45;&gt;[root] aws_internet_gateway.default -->
<g id="edge28" class="edge">
<title>[root] aws_route.default&#45;&gt;[root] aws_internet_gateway.default</title>
<path fill="none" stroke="black" d="M61.01,-575.95C73.66,-531.85 113.9,-413.69 194.5,-360 216.18,-345.56 242.04,-334.85 266.86,-326.99"/>
<polygon fill="black" stroke="black" points="268.13,-330.26 276.68,-324.01 266.09,-323.57 268.13,-330.26"/>
</g>
<!-- [root] aws_route53_record.default -->
<g id="node16" class="node">
<title>[root] aws_route53_record.default</title>
<polygon fill="none" stroke="black" points="337.5,-612 169.5,-612 169.5,-576 337.5,-576 337.5,-612"/>
<text text-anchor="middle" x="253.5" y="-590.3" font-family="Times,serif" font-size="14.00">aws_route53_record.default</text>
</g>
<!-- [root] aws_route53_record.default&#45;&gt;[root] aws_elb.default -->
<g id="edge29" class="edge">
<title>[root] aws_route53_record.default&#45;&gt;[root] aws_elb.default</title>
<path fill="none" stroke="black" d="M280.19,-575.99C295.32,-566.01 314.4,-552.87 330.5,-540 348.93,-525.28 350.6,-518.11 369.5,-504 424.42,-463.01 493.63,-423.99 537.24,-400.76"/>
<polygon fill="black" stroke="black" points="538.94,-403.82 546.14,-396.05 535.66,-397.64 538.94,-403.82"/>
</g>
<!-- [root] aws_route_table.nat1rt -->
<g id="node17" class="node">
<title>[root] aws_route_table.nat1rt</title>
<polygon fill="none" stroke="black" points="284,-468 143,-468 143,-432 284,-432 284,-468"/>
<text text-anchor="middle" x="213.5" y="-446.3" font-family="Times,serif" font-size="14.00">aws_route_table.nat1rt</text>
</g>
<!-- [root] aws_route_table.nat1rt&#45;&gt;[root] aws_nat_gateway.nat1 -->
<g id="edge30" class="edge">
<title>[root] aws_route_table.nat1rt&#45;&gt;[root] aws_nat_gateway.nat1</title>
<path fill="none" stroke="black" d="M228.33,-431.7C235.52,-423.3 244.3,-413.07 252.19,-403.86"/>
<polygon fill="black" stroke="black" points="254.99,-405.97 258.84,-396.1 249.67,-401.42 254.99,-405.97"/>
</g>
<!-- [root] aws_route_table.nat2rt -->
<g id="node18" class="node">
<title>[root] aws_route_table.nat2rt</title>
<polygon fill="none" stroke="black" points="1017,-468 876,-468 876,-432 1017,-432 1017,-468"/>
<text text-anchor="middle" x="946.5" y="-446.3" font-family="Times,serif" font-size="14.00">aws_route_table.nat2rt</text>
</g>
<!-- [root] aws_route_table.nat2rt&#45;&gt;[root] aws_nat_gateway.nat2 -->
<g id="edge31" class="edge">
<title>[root] aws_route_table.nat2rt&#45;&gt;[root] aws_nat_gateway.nat2</title>
<path fill="none" stroke="black" d="M920.57,-431.88C906.84,-422.81 889.79,-411.55 874.96,-401.76"/>
<polygon fill="black" stroke="black" points="876.8,-398.78 866.53,-396.19 872.95,-404.62 876.8,-398.78"/>
</g>
<!-- [root] aws_route_table_association.nat1rta -->
<g id="node19" class="node">
<title>[root] aws_route_table_association.nat1rta</title>
<polygon fill="none" stroke="black" points="321.5,-540 107.5,-540 107.5,-504 321.5,-504 321.5,-540"/>
<text text-anchor="middle" x="214.5" y="-518.3" font-family="Times,serif" font-size="14.00">aws_route_table_association.nat1rta</text>
</g>
<!-- [root] aws_route_table_association.nat1rta&#45;&gt;[root] aws_route_table.nat1rt -->
<g id="edge32" class="edge">
<title>[root] aws_route_table_association.nat1rta&#45;&gt;[root] aws_route_table.nat1rt</title>
<path fill="none" stroke="black" d="M214.25,-503.7C214.14,-495.98 214.01,-486.71 213.89,-478.11"/>
<polygon fill="black" stroke="black" points="217.39,-478.05 213.74,-468.1 210.39,-478.15 217.39,-478.05"/>
</g>
<!-- [root] aws_route_table_association.nat1rta&#45;&gt;[root] aws_subnet.int1 -->
<g id="edge33" class="edge">
<title>[root] aws_route_table_association.nat1rta&#45;&gt;[root] aws_subnet.int1</title>
<path fill="none" stroke="black" d="M240.91,-503.9C256.21,-493.79 275.71,-480.54 292.5,-468 312.75,-452.88 314.93,-445.16 336.5,-432 356.76,-419.64 380.41,-408.66 401.47,-399.95"/>
<polygon fill="black" stroke="black" points="402.99,-403.11 410.94,-396.11 400.36,-396.63 402.99,-403.11"/>
</g>
<!-- [root] aws_route_table_association.nat2rta -->
<g id="node20" class="node">
<title>[root] aws_route_table_association.nat2rta</title>
<polygon fill="none" stroke="black" points="1062.5,-540 848.5,-540 848.5,-504 1062.5,-504 1062.5,-540"/>
<text text-anchor="middle" x="955.5" y="-518.3" font-family="Times,serif" font-size="14.00">aws_route_table_association.nat2rta</text>
</g>
<!-- [root] aws_route_table_association.nat2rta&#45;&gt;[root] aws_route_table.nat2rt -->
<g id="edge34" class="edge">
<title>[root] aws_route_table_association.nat2rta&#45;&gt;[root] aws_route_table.nat2rt</title>
<path fill="none" stroke="black" d="M953.28,-503.7C952.28,-495.98 951.09,-486.71 949.99,-478.11"/>
<polygon fill="black" stroke="black" points="953.45,-477.58 948.7,-468.1 946.5,-478.47 953.45,-477.58"/>
</g>
<!-- [root] aws_route_table_association.nat2rta&#45;&gt;[root] aws_subnet.int2 -->
<g id="edge35" class="edge">
<title>[root] aws_route_table_association.nat2rta&#45;&gt;[root] aws_subnet.int2</title>
<path fill="none" stroke="black" d="M926.02,-503.87C894.75,-485.77 843.84,-456.51 799.5,-432 780.76,-421.64 759.87,-410.41 742.13,-400.97"/>
<polygon fill="black" stroke="black" points="743.64,-397.81 733.17,-396.21 740.36,-403.99 743.64,-397.81"/>
</g>
<!-- [root] aws_security_group.ec2&#45;&gt;[root] aws_security_group.elb -->
<g id="edge36" class="edge">
<title>[root] aws_security_group.ec2&#45;&gt;[root] aws_security_group.elb</title>
<path fill="none" stroke="black" d="M977.71,-288.59C929.54,-278.02 866.85,-264.26 817.05,-253.33"/>
<polygon fill="black" stroke="black" points="817.79,-249.91 807.27,-251.19 816.29,-256.75 817.79,-249.91"/>
</g>
<!-- [root] aws_security_group.elb&#45;&gt;[root] aws_vpc.default -->
<g id="edge37" class="edge">
<title>[root] aws_security_group.elb&#45;&gt;[root] aws_vpc.default</title>
<path fill="none" stroke="black" d="M708.55,-215.88C695.46,-206.89 679.24,-195.76 665.06,-186.03"/>
<polygon fill="black" stroke="black" points="666.77,-182.96 656.55,-180.19 662.81,-188.73 666.77,-182.96"/>
</g>
<!-- [root] aws_subnet.ext1&#45;&gt;[root] aws_vpc.default -->
<g id="edge38" class="edge">
<title>[root] aws_subnet.ext1&#45;&gt;[root] aws_vpc.default</title>
<path fill="none" stroke="black" d="M518.47,-287.73C515.01,-268.58 512.56,-237.56 526.5,-216 536.61,-200.38 552.82,-189.16 569.52,-181.19"/>
<polygon fill="black" stroke="black" points="571.07,-184.33 578.8,-177.09 568.24,-177.93 571.07,-184.33"/>
</g>
<!-- [root] var.zones -->
<g id="node34" class="node">
<title>[root] var.zones</title>
<polygon fill="none" stroke="black" points="597.5,-252 535.5,-252 535.5,-216 603.5,-216 603.5,-246 597.5,-252"/>
<polyline fill="none" stroke="black" points="597.5,-252 597.5,-246 "/>
<polyline fill="none" stroke="black" points="603.5,-246 597.5,-246 "/>
<text text-anchor="middle" x="569.5" y="-230.3" font-family="Times,serif" font-size="14.00">var.zones</text>
</g>
<!-- [root] aws_subnet.ext1&#45;&gt;[root] var.zones -->
<g id="edge39" class="edge">
<title>[root] aws_subnet.ext1&#45;&gt;[root] var.zones</title>
<path fill="none" stroke="black" d="M534.12,-287.7C539.64,-279.47 546.35,-269.48 552.43,-260.42"/>
<polygon fill="black" stroke="black" points="555.35,-262.36 558.02,-252.1 549.54,-258.46 555.35,-262.36"/>
</g>
<!-- [root] aws_subnet.ext2&#45;&gt;[root] aws_vpc.default -->
<g id="edge40" class="edge">
<title>[root] aws_subnet.ext2&#45;&gt;[root] aws_vpc.default</title>
<path fill="none" stroke="black" d="M672.34,-287.85C664.81,-277.93 656,-264.89 650.5,-252 642.09,-232.29 637.26,-208.49 634.57,-190.46"/>
<polygon fill="black" stroke="black" points="638.01,-189.76 633.2,-180.33 631.07,-190.71 638.01,-189.76"/>
</g>
<!-- [root] aws_subnet.ext2&#45;&gt;[root] var.zones -->
<g id="edge41" class="edge">
<title>[root] aws_subnet.ext2&#45;&gt;[root] var.zones</title>
<path fill="none" stroke="black" d="M657.88,-287.88C642.58,-278.72 623.56,-267.34 607.08,-257.48"/>
<polygon fill="black" stroke="black" points="608.61,-254.32 598.23,-252.19 605.02,-260.33 608.61,-254.32"/>
</g>
<!-- [root] aws_subnet.int1&#45;&gt;[root] aws_subnet.ext1 -->
<g id="edge42" class="edge">
<title>[root] aws_subnet.int1&#45;&gt;[root] aws_subnet.ext1</title>
<path fill="none" stroke="black" d="M474.32,-359.7C482.07,-351.22 491.54,-340.86 500.02,-331.58"/>
<polygon fill="black" stroke="black" points="502.7,-333.85 506.86,-324.1 497.53,-329.12 502.7,-333.85"/>
</g>
<!-- [root] aws_subnet.int2&#45;&gt;[root] aws_subnet.ext2 -->
<g id="edge43" class="edge">
<title>[root] aws_subnet.int2&#45;&gt;[root] aws_subnet.ext2</title>
<path fill="none" stroke="black" d="M697.04,-359.7C695.5,-351.98 693.64,-342.71 691.92,-334.11"/>
<polygon fill="black" stroke="black" points="695.31,-333.22 689.92,-324.1 688.45,-334.6 695.31,-333.22"/>
</g>
<!-- [root] aws_vpc.default&#45;&gt;[root] provider.aws -->
<g id="edge44" class="edge">
<title>[root] aws_vpc.default&#45;&gt;[root] provider.aws</title>
<path fill="none" stroke="black" d="M672.11,-143.88C699.63,-132.27 735.66,-117.08 762.04,-105.95"/>
<polygon fill="black" stroke="black" points="763.43,-109.17 771.28,-102.06 760.71,-102.72 763.43,-109.17"/>
</g>
<!-- [root] var.vpc_cidrs -->
<g id="node33" class="node">
<title>[root] var.vpc_cidrs</title>
<polygon fill="none" stroke="black" points="670,-108 587,-108 587,-72 676,-72 676,-102 670,-108"/>
<polyline fill="none" stroke="black" points="670,-108 670,-102 "/>
<polyline fill="none" stroke="black" points="676,-102 670,-102 "/>
<text text-anchor="middle" x="631.5" y="-86.3" font-family="Times,serif" font-size="14.00">var.vpc_cidrs</text>
</g>
<!-- [root] aws_vpc.default&#45;&gt;[root] var.vpc_cidrs -->
<g id="edge45" class="edge">
<title>[root] aws_vpc.default&#45;&gt;[root] var.vpc_cidrs</title>
<path fill="none" stroke="black" d="M631.5,-143.7C631.5,-135.98 631.5,-126.71 631.5,-118.11"/>
<polygon fill="black" stroke="black" points="635,-118.1 631.5,-108.1 628,-118.1 635,-118.1"/>
</g>
<!-- [root] var.aws_region -->
<g id="node30" class="node">
<title>[root] var.aws_region</title>
<polygon fill="none" stroke="black" points="841,-36 748,-36 748,0 847,0 847,-30 841,-36"/>
<polyline fill="none" stroke="black" points="841,-36 841,-30 "/>
<polyline fill="none" stroke="black" points="847,-30 841,-30 "/>
<text text-anchor="middle" x="797.5" y="-14.3" font-family="Times,serif" font-size="14.00">var.aws_region</text>
</g>
<!-- [root] provider.aws&#45;&gt;[root] var.aws_region -->
<g id="edge62" class="edge">
<title>[root] provider.aws&#45;&gt;[root] var.aws_region</title>
<path fill="none" stroke="black" d="M797.5,-71.7C797.5,-63.98 797.5,-54.71 797.5,-46.11"/>
<polygon fill="black" stroke="black" points="801,-46.1 797.5,-36.1 794,-46.1 801,-46.1"/>
</g>
<!-- [root] meta.count&#45;boundary (EachMode fixup) -->
<g id="node35" class="node">
<title>[root] meta.count&#45;boundary (EachMode fixup)</title>
<ellipse fill="none" stroke="black" cx="717.5" cy="-666" rx="176.57" ry="18"/>
<text text-anchor="middle" x="717.5" y="-662.3" font-family="Times,serif" font-size="14.00">[root] meta.count&#45;boundary (EachMode fixup)</text>
</g>
<!-- [root] meta.count&#45;boundary (EachMode fixup)&#45;&gt;[root] aws_autoscaling_schedule.default -->
<g id="edge46" class="edge">
<title>[root] meta.count&#45;boundary (EachMode fixup)&#45;&gt;[root] aws_autoscaling_schedule.default</title>
<path fill="none" stroke="black" d="M780.13,-649.12C820.56,-638.86 873.44,-625.45 916.44,-614.54"/>
<polygon fill="black" stroke="black" points="917.46,-617.9 926.3,-612.04 915.74,-611.11 917.46,-617.9"/>
</g>
<!-- [root] meta.count&#45;boundary (EachMode fixup)&#45;&gt;[root] aws_cloudwatch_metric_alarm.cool -->
<g id="edge47" class="edge">
<title>[root] meta.count&#45;boundary (EachMode fixup)&#45;&gt;[root] aws_cloudwatch_metric_alarm.cool</title>
<path fill="none" stroke="black" d="M667.13,-648.68C636.4,-638.72 596.87,-625.91 564.13,-615.3"/>
<polygon fill="black" stroke="black" points="564.8,-611.84 554.21,-612.08 562.64,-618.49 564.8,-611.84"/>
</g>
<!-- [root] meta.count&#45;boundary (EachMode fixup)&#45;&gt;[root] aws_cloudwatch_metric_alarm.hot -->
<g id="edge48" class="edge">
<title>[root] meta.count&#45;boundary (EachMode fixup)&#45;&gt;[root] aws_cloudwatch_metric_alarm.hot</title>
<path fill="none" stroke="black" d="M730.6,-647.7C736.89,-639.39 744.55,-629.28 751.46,-620.14"/>
<polygon fill="black" stroke="black" points="754.3,-622.19 757.55,-612.1 748.72,-617.96 754.3,-622.19"/>
</g>
<!-- [root] meta.count&#45;boundary (EachMode fixup)&#45;&gt;[root] aws_key_pair.default -->
<g id="edge49" class="edge">
<title>[root] meta.count&#45;boundary (EachMode fixup)&#45;&gt;[root] aws_key_pair.default</title>
<path fill="none" stroke="black" d="M836.64,-652.61C920.7,-643.22 1035.83,-629.03 1136.5,-612 1137.76,-611.79 1139.03,-611.57 1140.31,-611.34"/>
<polygon fill="black" stroke="black" points="1141.02,-614.77 1150.23,-609.53 1139.76,-607.89 1141.02,-614.77"/>
</g>
<!-- [root] meta.count&#45;boundary (EachMode fixup)&#45;&gt;[root] aws_route.default -->
<g id="edge50" class="edge">
<title>[root] meta.count&#45;boundary (EachMode fixup)&#45;&gt;[root] aws_route.default</title>
<path fill="none" stroke="black" d="M592.17,-653.29C434.48,-638.52 181.59,-614.72 160.5,-612 148.45,-610.44 135.65,-608.55 123.31,-606.6"/>
<polygon fill="black" stroke="black" points="123.5,-603.09 113.07,-604.96 122.39,-610 123.5,-603.09"/>
</g>
<!-- [root] meta.count&#45;boundary (EachMode fixup)&#45;&gt;[root] aws_route53_record.default -->
<g id="edge51" class="edge">
<title>[root] meta.count&#45;boundary (EachMode fixup)&#45;&gt;[root] aws_route53_record.default</title>
<path fill="none" stroke="black" d="M623.04,-650.75C542.75,-638.64 428.04,-621.33 347.79,-609.23"/>
<polygon fill="black" stroke="black" points="348.1,-605.73 337.69,-607.7 347.06,-612.65 348.1,-605.73"/>
</g>
<!-- [root] meta.count&#45;boundary (EachMode fixup)&#45;&gt;[root] aws_route_table_association.nat1rta -->
<g id="edge52" class="edge">
<title>[root] meta.count&#45;boundary (EachMode fixup)&#45;&gt;[root] aws_route_table_association.nat1rta</title>
<path fill="none" stroke="black" d="M697.59,-647.96C685.6,-637.64 670.09,-624.17 656.5,-612 638.93,-596.26 638.86,-586.01 617.5,-576 604.54,-569.93 446.17,-550.27 331.89,-536.68"/>
<polygon fill="black" stroke="black" points="332.01,-533.17 321.66,-535.47 331.18,-540.12 332.01,-533.17"/>
</g>
<!-- [root] meta.count&#45;boundary (EachMode fixup)&#45;&gt;[root] aws_route_table_association.nat2rta -->
<g id="edge53" class="edge">
<title>[root] meta.count&#45;boundary (EachMode fixup)&#45;&gt;[root] aws_route_table_association.nat2rta</title>
<path fill="none" stroke="black" d="M891.59,-662.74C979.93,-657.51 1074.43,-644.2 1102.5,-612 1129.23,-581.34 1085.78,-558.09 1039.33,-543.06"/>
<polygon fill="black" stroke="black" points="1040.3,-539.69 1029.71,-540.07 1038.22,-546.38 1040.3,-539.69"/>
</g>
<!-- [root] provider.aws (close) -->
<g id="node36" class="node">
<title>[root] provider.aws (close)</title>
<ellipse fill="none" stroke="black" cx="418.5" cy="-666" rx="104.78" ry="18"/>
<text text-anchor="middle" x="418.5" y="-662.3" font-family="Times,serif" font-size="14.00">[root] provider.aws (close)</text>
</g>
<!-- [root] provider.aws (close)&#45;&gt;[root] aws_autoscaling_schedule.default -->
<g id="edge54" class="edge">
<title>[root] provider.aws (close)&#45;&gt;[root] aws_autoscaling_schedule.default</title>
<path fill="none" stroke="black" d="M492.89,-653.3C505.75,-651.42 519,-649.58 531.5,-648 684.32,-628.7 725.83,-631.87 882.81,-612.05"/>
<polygon fill="black" stroke="black" points="883.34,-615.51 892.82,-610.77 882.46,-608.56 883.34,-615.51"/>
</g>
<!-- [root] provider.aws (close)&#45;&gt;[root] aws_cloudwatch_metric_alarm.cool -->
<g id="edge55" class="edge">
<title>[root] provider.aws (close)&#45;&gt;[root] aws_cloudwatch_metric_alarm.cool</title>
<path fill="none" stroke="black" d="M438.59,-648.05C449.12,-639.18 462.17,-628.17 473.66,-618.48"/>
<polygon fill="black" stroke="black" points="475.92,-621.15 481.31,-612.03 471.4,-615.8 475.92,-621.15"/>
</g>
<!-- [root] provider.aws (close)&#45;&gt;[root] aws_cloudwatch_metric_alarm.hot -->
<g id="edge56" class="edge">
<title>[root] provider.aws (close)&#45;&gt;[root] aws_cloudwatch_metric_alarm.hot</title>
<path fill="none" stroke="black" d="M484.3,-651.92C537.92,-641.25 614.39,-626.04 674.8,-614.03"/>
<polygon fill="black" stroke="black" points="675.6,-617.44 684.73,-612.06 674.24,-610.57 675.6,-617.44"/>
</g>
<!-- [root] provider.aws (close)&#45;&gt;[root] aws_key_pair.default -->
<g id="edge57" class="edge">
<title>[root] provider.aws (close)&#45;&gt;[root] aws_key_pair.default</title>
<path fill="none" stroke="black" d="M491.63,-653.06C504.87,-651.16 518.58,-649.38 531.5,-648 784.35,-621.06 849.63,-638.78 1102.5,-612 1114.75,-610.7 1127.7,-609.05 1140.3,-607.28"/>
<polygon fill="black" stroke="black" points="1140.91,-610.73 1150.31,-605.84 1139.92,-603.8 1140.91,-610.73"/>
</g>
<!-- [root] provider.aws (close)&#45;&gt;[root] aws_route.default -->
<g id="edge58" class="edge">
<title>[root] provider.aws (close)&#45;&gt;[root] aws_route.default</title>
<path fill="none" stroke="black" d="M346.23,-652.97C287.22,-642.88 201.74,-627.64 127.5,-612 126.03,-611.69 124.54,-611.37 123.04,-611.05"/>
<polygon fill="black" stroke="black" points="123.54,-607.57 113.02,-608.83 122.02,-614.41 123.54,-607.57"/>
</g>
<!-- [root] provider.aws (close)&#45;&gt;[root] aws_route53_record.default -->
<g id="edge59" class="edge">
<title>[root] provider.aws (close)&#45;&gt;[root] aws_route53_record.default</title>
<path fill="none" stroke="black" d="M381.06,-649.12C357.96,-639.32 328.06,-626.63 303.01,-616.01"/>
<polygon fill="black" stroke="black" points="304.25,-612.73 293.68,-612.04 301.51,-619.17 304.25,-612.73"/>
</g>
<!-- [root] provider.aws (close)&#45;&gt;[root] aws_route_table_association.nat1rta -->
<g id="edge60" class="edge">
<title>[root] provider.aws (close)&#45;&gt;[root] aws_route_table_association.nat1rta</title>
<path fill="none" stroke="black" d="M324.49,-657.98C259.52,-650.95 181.2,-637.38 160.5,-612 143.89,-591.63 163.58,-565.68 183.68,-547.07"/>
<polygon fill="black" stroke="black" points="186.15,-549.56 191.33,-540.32 181.52,-544.31 186.15,-549.56"/>
</g>
<!-- [root] provider.aws (close)&#45;&gt;[root] aws_route_table_association.nat2rta -->
<g id="edge61" class="edge">
<title>[root] provider.aws (close)&#45;&gt;[root] aws_route_table_association.nat2rta</title>
<path fill="none" stroke="black" d="M402.55,-647.94C386.23,-628.41 365.72,-596.48 384.5,-576 415.86,-541.81 754.33,-544.53 800.5,-540 812.72,-538.8 825.48,-537.49 838.2,-536.15"/>
<polygon fill="black" stroke="black" points="838.81,-539.61 848.39,-535.07 838.07,-532.65 838.81,-539.61"/>
</g>
<!-- [root] root -->
<g id="node37" class="node">
<title>[root] root</title>
<ellipse fill="none" stroke="black" cx="567.5" cy="-738" rx="47.39" ry="18"/>
<text text-anchor="middle" x="567.5" y="-734.3" font-family="Times,serif" font-size="14.00">[root] root</text>
</g>
<!-- [root] root&#45;&gt;[root] meta.count&#45;boundary (EachMode fixup) -->
<g id="edge63" class="edge">
<title>[root] root&#45;&gt;[root] meta.count&#45;boundary (EachMode fixup)</title>
<path fill="none" stroke="black" d="M596.42,-723.5C618.01,-713.43 647.92,-699.47 672.61,-687.95"/>
<polygon fill="black" stroke="black" points="674.2,-691.07 681.79,-683.67 671.24,-684.72 674.2,-691.07"/>
</g>
<!-- [root] root&#45;&gt;[root] provider.aws (close) -->
<g id="edge64" class="edge">
<title>[root] root&#45;&gt;[root] provider.aws (close)</title>
<path fill="none" stroke="black" d="M538.77,-723.5C516.95,-713.25 486.58,-698.98 461.81,-687.35"/>
<polygon fill="black" stroke="black" points="463.16,-684.12 452.63,-683.03 460.19,-690.45 463.16,-684.12"/>
</g>
</g>
</svg>
